<?xml version="1.0" encoding="UTF-8" standalone="no"?>
<!-- Created with Inkscape (http://www.inkscape.org/) -->

<svg
   width="386.47928mm"
   height="141.54738mm"
   viewBox="0 0 386.47928 141.54738"
   version="1.1"
   id="svg1"
   xml:space="preserve"
   sodipodi:docname="houseofcare.svg"
   inkscape:version="1.4.2 (ebf0e940, 2025-05-08)"
   xmlns:inkscape="http://www.inkscape.org/namespaces/inkscape"
   xmlns:sodipodi="http://sodipodi.sourceforge.net/DTD/sodipodi-0.dtd"
   xmlns="http://www.w3.org/2000/svg"
   xmlns:svg="http://www.w3.org/2000/svg"><sodipodi:namedview
     id="namedview1"
     pagecolor="#ffffff"
     bordercolor="#000000"
     borderopacity="0.25"
     inkscape:showpageshadow="2"
     inkscape:pageopacity="0.0"
     inkscape:pagecheckerboard="0"
     inkscape:deskcolor="#d1d1d1"
     inkscape:document-units="mm"
     inkscape:zoom="0.56958638"
     inkscape:cx="730.35454"
     inkscape:cy="267.73814"
     inkscape:window-width="2624"
     inkscape:window-height="1186"
     inkscape:window-x="0"
     inkscape:window-y="31"
     inkscape:window-maximized="0"
     inkscape:current-layer="svg1" /><defs
     id="defs1" /><g
     id="layer1"
     transform="translate(29.844908,-611.71665)"
     style="display:inline"><path
       style="display:inline;fill:none;stroke:#1b1b1b"
       d="m 163.82792,683.62968 c -3.84892,0.0319 -7.79844,0.70694 -11.64166,0.0649 -1.73401,-0.28967 -3.56985,-1.10243 -4.04919,-2.97533 -0.46842,-1.83017 1.31755,-3.33853 2.4627,-4.49792 3.06091,-3.09895 6.44568,-6.53578 9.5689,-9.38311 2.36952,-2.16024 4.80862,-4.73085 7.09884,-7.02106 5.0128,-5.0128 10.04719,-9.94389 15.08023,-14.80625 0.92836,-0.89689 1.93576,-1.7496 2.91531,-2.68013 4.59306,-4.36327 9.04077,-8.75618 13.48987,-13.20528 4.49004,-4.49004 8.96593,-9.21832 13.75834,-13.38147 1.63475,-1.42012 3.40657,-3.84061 5.82083,-3.4943 3.52433,0.50556 6.69431,5.48859 9.04074,7.83502 1.66091,1.66092 3.61637,3.50258 5.24676,5.06158 13.35735,12.77246 26.79074,25.74283 39.95208,38.90417 3.63285,3.63285 7.60597,6.9331 11.0002,10.84791 1.5336,1.7688 3.13421,3.61821 3.01006,6.08542 -0.088,1.74849 -1.23756,2.55109 -2.89776,2.63522 -3.65649,0.18528 -7.44664,4.7e-4 -11.1125,0.25152 -1.28842,0.0882 -4.06283,-0.21348 -4.61328,0.87786 -1.54028,3.05377 -0.4138,9.59679 -0.4138,13.16873 v 33.07292 c 0,3.85723 -0.26433,11.59957 -0.26458,14.02292 -2.82784,-0.5328 -7.32504,-1.41208 -11.1125,-2.00826 -5.17634,-0.81479 -10.36387,-1.60609 -15.61042,-1.60609 -2.63093,0 -5.65499,0.3072 -8.20208,0.72517 -1.19462,0.19603 -1.59054,0.0425 -2.64584,0.37809 -0.34504,0.10973 -2.362,1.11851 -2.64583,1.16979 -0.77767,0.14052 -1.06938,0.0354 -1.85208,0.1962 -1.64467,0.33778 -5.77325,1.58646 -6.22199,2.76097 -0.47628,1.24658 1.49669,2.30338 3.31157,1.66529 0.90172,-0.31705 1.17654,-0.70663 1.85208,-1.11979 1.81817,-1.112 2.53325,-2.12368 2.91042,-2.95512 m -61.11875,-60.32498 c 2.03314,0.44749 2.28447,1.73447 2.37083,3.70416 0.16948,3.86528 0.0104,7.77245 0.0104,11.64167 0,8.74139 -0.26458,17.46762 -0.26458,26.19375 v 12.7 2.11667 2.11667 c 0,1.34778 -0.30779,4.00928 0.34868,5.28023 1.17417,2.27324 4.8827,1.86702 7.05965,1.86352 6.95624,-0.0112 14.23745,0.0853 21.16667,-0.57408 1.57123,-0.14952 3.53901,-0.19474 5.02278,-0.69597 1.01985,-0.3445 1.72595,-1.066 0.72599,-2.00091 -1.54101,-1.44077 -6.20217,-2.11136 -8.39461,-2.6489 -5.29549,-1.29833 -10.97832,-2.06212 -16.40416,-2.56661 -2.34177,-0.21774 -5.09307,-0.50565 -7.40834,-0.50937 -0.86947,-10e-4 -1.31676,0 -2.11666,0 h -3.175 c -4.93601,0 -9.91823,0.50866 -14.81667,1.13388 -16.7061,2.1323 -32.92898,6.15147 -49.74167,7.55144 -1.626514,0.13543 -3.67676,-0.21865 -5.291665,-0.21865 -0.748194,0 -1.348714,0.0438 -2.116667,-0.0276 -1.52267,-0.14157 -2.985912,-0.58426 -4.497916,-0.83131 -1.193459,-0.195 -1.866666,-0.2348 -2.910417,-0.50507 -1.283376,-0.33231 -3.034246,-0.82519 -4.497917,-1.27536 -3.03041,-0.932 -7.178647,-2.48602 -8.995833,-3.97527 2.373781,-2.69391 7.777158,-5.587 10.846899,-8.44401 3.903509,-3.63299 7.420591,-8.04415 8.883542,-13.25183 0.825951,-2.94013 0.825435,-6.55541 -0.314184,-9.26042 -2.270501,-5.38927 -9.506703,-6.92186 -14.653757,-4.62633 -1.920167,0.85638 -3.356126,3.10214 -5.291667,3.45633 -1.18129,0.21617 -3.819857,-2.44532 -5.027083,-3.03434 -4.320804,-2.10819 -9.685496,-2.1983 -13.205282,1.55953 -9.02923,9.63987 2.752206,22.30363 10.294865,28.30838 1.514209,1.20547 3.757636,2.74927 5.291667,3.76642 1.225709,0.81274 1.421482,1.39426 3.175,1.52627 M 196.63626,728.34427 c -1.44355,-1.51286 -3.96217,-5.63858 -5.29086,-9.525 -1.13934,-3.33252 -1.7207,-6.83167 -0.8801,-10.31875 0.5201,-2.15754 1.95768,-4.51986 3.5488,-5.9225 4.51447,-3.97973 12.66654,-4.82125 17.43882,-0.64309 1.85761,1.62635 3.38642,3.73667 4.76271,5.77164 0.44309,0.65514 1.09866,1.93363 2.07155,1.54115 1.03351,-0.41694 1.89578,-2.24061 2.51742,-3.12845 1.145,-1.63533 2.53724,-3.08783 4.14207,-4.2219 5.86163,-4.1422 14.64652,-3.34529 18.85176,2.89898 6.0381,8.96586 -1.70852,19.56509 -6.68113,26.9875 -0.9088,1.35652 -1.87118,2.67138 -2.79874,3.96875 -1.98662,2.77868 -3.59453,4.30245 -4.08022,6.08542 M 195.57792,727.8151 v 1.05833 m 1.32292,0.79375 0.52917,0.52917 m 1.32291,2.11667 c 4.03546,5.23568 7.92386,10.95292 12.96459,15.29582 1.27501,1.09849 3.90775,1.42207 5.29166,1.36783 1.14233,-0.0448 1.58771,-0.40815 2.11667,-0.78865 m -248.708335,-5.82083 c 1.814396,-1.11869 3.54446,-2.19609 5.55625,-2.96126 6.203972,-2.35961 13.532277,-2.76621 20.1083335,-1.99028 16.9009065,1.99414 32.4431585,9.58221 49.4770835,10.74869 5.673087,0.38848 11.786199,-0.24207 17.197916,-2.00561 3.102096,-1.0109 6.300932,-2.30191 7.672917,-3.79154 m 152.400005,5.82083 c 0.39222,0.28214 0.70061,0.61383 1.58872,0.75966 1.38404,0.22725 6.14215,0.29867 7.93628,0.29867 h 15.61041 7.14375 1.5875 2.91042 2.38125 c 1.38615,0 2.41125,0.23766 3.96365,-0.24947 2.45472,-0.77028 0.15228,-3.98431 3.18029,-3.60475 1.59057,0.19937 2.87144,0.56986 4.23314,0.85276 1.46477,0.30431 3.32412,0.64989 5.02709,0.99054 12.90383,2.58127 26.00632,4.86419 39.15833,5.44009 8.99583,0.39392 18.2629,-0.52923 26.9875,-2.76199 4.17523,-1.06851 7.95126,-2.74874 11.90625,-4.37134"
       id="path27"
       sodipodi:nodetypes="csssssscssssssssssssscssssscsssccsssccsssssssscssssssssccsssssssssccsssssssssssccccccssccscssccssccccsssscssc" /></g><path
     style="display:inline;mix-blend-mode:color;fill:#ff8080;stroke-width:1.75566"
     d="m 369.23271,481.87852 c -38.83235,-26.56707 -64.09901,-60.0121 -64.09901,-84.84672 0,-27.17263 24.91594,-45.30619 49.96858,-36.36661 3.63207,1.29604 10.8624,5.28947 16.06739,8.87429 10.77111,7.41834 13.487,7.2696 24.42516,-1.33771 16.47411,-12.96358 37.28256,-13.27111 51.53013,-0.76158 8.40279,7.37775 11.11102,14.44023 11.06062,28.84366 -0.0895,25.57479 -17.65759,52.32588 -49.01673,74.63824 -8.26275,5.87904 -17.43322,12.93541 -20.37881,15.68083 l -5.35562,4.99167 z"
     id="path1"
     transform="scale(0.26458333)" /></svg>
